<?xml version="1.0" encoding="UTF-8"?>
<svg id="Camada_2" data-name="Camada 2" xmlns="http://www.w3.org/2000/svg" viewBox="0 0 376.34 90.72">
  <defs>
    <style>
      .cls-1 {
        fill: #7cb928;
      }

      .cls-1, .cls-2, .cls-3 {
        stroke-width: 0px;
      }

      .cls-2 {
        fill: #1d1d1b;
      }

      .cls-3 {
        fill: #575756;
      }
    </style>
  </defs>
  <g id="Layer_1" data-name="Layer 1">
    <g>
      <g>
        <path class="cls-3" d="m198.25,1.21c.65,0,1.05.39,1.05,1.05v50.35c0,.66-.39,1.05-1.05,1.05h-6.49c-.59,0-.98-.26-1.18-.85l-10.03-27.99h-.33v27.8c0,.66-.33,1.05-1.05,1.05h-6.82c-.65,0-1.05-.39-1.05-1.05V2.25c0-.65.39-1.05,1.05-1.05h6.49c.59,0,.98.26,1.18.85l9.97,27.86h.39V2.25c0-.65.33-1.05,1.05-1.05h6.82Z"/>
        <path class="cls-3" d="m232.01,15.37c0,.65-.26,1.11-1.05,1.11h-16.19v10.1h12.32c.66,0,1.05.39,1.05,1.11v6.49c0,.72-.39,1.11-1.05,1.11h-12.32v9.7h16.19c.79,0,1.05.33,1.05,1.05v6.56c0,.66-.26,1.05-1.05,1.05h-24.13c-.59,0-.98-.39-.98-1.05V8.81c0-.66.39-1.05.98-1.05h24.13c.79,0,1.05.39,1.05,1.05v6.56Z"/>
        <path class="cls-3" d="m279.21,7.76c.92,0,1.38.53,1.25,1.38l-6.29,43.33c-.13.79-.59,1.18-1.44,1.18h-7.08c-.79,0-1.25-.39-1.44-1.18l-6.03-26.88-6.1,26.88c-.2.79-.66,1.18-1.44,1.18h-7.21c-.85,0-1.31-.39-1.44-1.25l-6.03-43.27c-.13-.85.33-1.38,1.25-1.38h6.16c.79,0,1.25.39,1.38,1.25l3.21,27.41h.33l6.43-27.54c.2-.72.65-1.11,1.44-1.11h4c.79,0,1.25.39,1.44,1.11l6.42,27.54h.33l3.34-27.41c.13-.85.52-1.25,1.38-1.25h6.16Z"/>
        <path class="cls-3" d="m286.74,2.25c0-.65.39-1.05,1.05-1.05h15.74c6.16,0,9.44,3.28,9.44,9.44v16c0,6.1-3.28,9.44-9.44,9.44h-7.87v16.52c0,.66-.33,1.05-1.05,1.05h-6.82c-.65,0-1.05-.39-1.05-1.05V2.25Zm14.69,25.18c1.77,0,2.62-.98,2.62-2.62v-12.32c0-1.7-.85-2.62-2.62-2.62h-5.77v17.57h5.77Z"/>
        <path class="cls-3" d="m338.85,53.65c-.59,0-.92-.33-1.05-.92l-2.1-8.26h-12.33l-2.03,8.26c-.13.59-.46.92-1.05.92h-6.42c-.72,0-1.05-.39-.85-1.11l10.88-43.86c.13-.66.52-.92,1.11-.92h9.11c.59,0,.98.26,1.11.92l10.88,43.86c.2.72-.13,1.11-.92,1.11h-6.36Zm-9.31-34.62l-4.13,17.83h8.26l-4.13-17.83Z"/>
        <path class="cls-3" d="m350.12,8.81c0-.66.33-1.05,1.05-1.05h15.74c6.16,0,9.44,3.34,9.44,9.51v26.94c0,6.16-3.28,9.44-9.44,9.44h-15.74c-.72,0-1.05-.33-1.05-1.05V8.81Zm14.95,36.19c1.7,0,2.62-.85,2.62-2.62v-23.27c0-1.77-.92-2.69-2.62-2.69h-6.03v28.58h6.03Z"/>
      </g>
      <g>
        <path class="cls-1" d="m187.43,73.79c0,1.49-1.08,2.61-2.53,2.85v.08c1.45.24,2.53,1.37,2.53,2.85v5.35c0,3.78-2.05,5.79-5.83,5.79h-9.65c-.4,0-.64-.24-.64-.64v-26.86c0-.44.24-.64.64-.64h9.65c3.78,0,5.83,2.01,5.83,5.79v5.43Zm-5.11-4.54c0-1.04-.52-1.61-1.61-1.61h-4.42v6.39h4.42c1.05,0,1.61-.56,1.61-1.57v-3.22Zm0,11.7c0-1.05-.52-1.61-1.61-1.61h-4.42v6.31h4.42c1.05,0,1.61-.52,1.61-1.61v-3.09Z"/>
        <path class="cls-1" d="m208.73,62.57c.44,0,.8.36.8.8v21.55c0,3.78-2.01,5.79-5.79,5.79h-4.5c-3.78,0-5.79-2.01-5.79-5.79v-21.55c0-.44.36-.8.8-.8h3.86c.44,0,.8.36.8.8v20.43c0,1.09.56,1.61,1.61,1.61h2.09c1.04,0,1.61-.52,1.61-1.61v-20.43c0-.44.36-.8.8-.8h3.7Z"/>
        <path class="cls-1" d="m216.2,90.72c-.44,0-.64-.24-.64-.64v-26.86c0-.4.2-.64.64-.64h4.18c.4,0,.64.24.64.64v26.86c0,.4-.24.64-.64.64h-4.18Z"/>
        <path class="cls-1" d="m232.52,85.41h7.96c.44,0,.64.24.64.64v4.02c0,.44-.2.64-.64.64h-12.79c-.4,0-.64-.2-.64-.64v-26.86c0-.4.24-.64.64-.64h4.18c.44,0,.64.24.64.64v22.19Z"/>
        <path class="cls-1" d="m247.15,63.22c0-.4.2-.64.64-.64h9.65c3.78,0,5.79,2.05,5.79,5.83v16.53c0,3.78-2.01,5.79-5.79,5.79h-9.65c-.44,0-.64-.2-.64-.64v-26.86Zm9.17,22.19c1.04,0,1.61-.52,1.61-1.61v-14.28c0-1.08-.56-1.65-1.61-1.65h-3.7v17.53h3.7Z"/>
        <path class="cls-1" d="m269.9,90.72c-.44,0-.64-.24-.64-.64v-26.86c0-.4.2-.64.64-.64h4.18c.4,0,.64.24.64.64v26.86c0,.4-.24.64-.64.64h-4.18Z"/>
        <path class="cls-1" d="m297.28,62.57c.4,0,.64.24.64.64v26.86c0,.4-.24.64-.64.64h-3.18c-.36,0-.56-.16-.72-.52l-7.56-15.36v15.24c0,.4-.2.64-.64.64h-3.78c-.4,0-.64-.24-.64-.64v-26.86c0-.4.24-.64.64-.64h3.18c.36,0,.56.16.72.52l7.56,15.36v-15.24c0-.4.2-.64.64-.64h3.78Z"/>
        <path class="cls-1" d="m303.95,68.36c0-3.78,2.01-5.79,5.79-5.79h4.5c3.74,0,5.79,2.01,5.79,5.79v2.97c0,.4-.24.64-.64.64h-3.78c-.44,0-.64-.24-.64-.64v-1.97c0-1.05-.56-1.61-1.61-1.61h-2.57c-1.09,0-1.61.56-1.61,1.61v14.55c0,1.09.56,1.61,1.61,1.61h2.57c1.05,0,1.61-.52,1.61-1.61v-3.5h-2.09c-.44,0-.64-.24-.64-.64v-4.02c0-.44.2-.64.64-.64h6.51c.4,0,.64.2.64.64v9.17c0,3.78-2.05,5.79-5.79,5.79h-4.5c-3.78,0-5.79-2.01-5.79-5.79v-16.57Z"/>
        <path class="cls-1" d="m354.24,72.7c0,.4-.24.64-.64.64h-3.78c-.44,0-.64-.24-.64-.64v-3.3c0-1.04-.56-1.61-1.61-1.61h-2.57c-1.09,0-1.61.56-1.61,1.61v14.6c0,1.09.56,1.61,1.61,1.61h2.57c1.04,0,1.61-.52,1.61-1.61v-3.42c0-.4.2-.64.64-.64h3.78c.4,0,.64.24.64.64v4.34c0,3.78-2.05,5.79-5.79,5.79h-4.5c-3.78,0-5.83-2.01-5.83-5.79v-16.57c0-3.78,2.05-5.79,5.83-5.79h4.5c3.74,0,5.79,2.01,5.79,5.79v4.34Z"/>
        <path class="cls-1" d="m360.26,68.36c0-3.78,2.01-5.79,5.79-5.79h4.5c3.78,0,5.79,2.01,5.79,5.79v16.57c0,3.78-2.01,5.79-5.79,5.79h-4.5c-3.78,0-5.79-2.01-5.79-5.79v-16.57Zm9.41,17.17c1.05,0,1.61-.52,1.61-1.61v-14.55c0-1.05-.56-1.61-1.61-1.61h-2.57c-1.04,0-1.61.56-1.61,1.61v14.55c0,1.09.56,1.61,1.61,1.61h2.57Z"/>
      </g>
      <rect class="cls-3" x="43.1" y="28.98" width=".91" height="67.94" transform="translate(-29.52 40.15) rotate(-38)"/>
      <g>
        <polygon class="cls-2" points="92.94 89.3 67.85 89.3 24.02 33.18 24.02 89.3 0 89.3 .48 0 25.17 0 25.58 .53 61.65 46.91 59.49 48.6 23.83 2.74 3.2 2.74 2.75 86.56 21.28 86.56 21.28 25.22 69.19 86.56 90.2 86.56 90.2 16.69 122.35 16.71 127.4 17.45 131.21 18.79 133.77 20.43 135.97 22.96 137.35 26.14 137.9 29.44 137.88 32.39 137.27 35.78 135.87 38.92 133.86 40.93 131.83 42.75 128.31 44.22 124.78 44.97 121.01 45.28 106.74 45.28 106.74 42.54 120.95 42.54 124.47 42.25 127.61 41.57 130.34 40.4 131.98 38.94 133.57 37.35 134.7 34.82 135.16 32.05 135.16 29.56 134.68 26.78 133.64 24.45 131.96 22.53 129.87 21.19 126.64 20.09 122.06 19.43 92.94 19.43 92.94 89.3"/>
        <polygon class="cls-2" points="106.74 61.72 106.74 58.99 120.32 58.99 126.22 58.82 130.28 58.42 134.98 57.59 137.9 56.82 141.86 55.37 145.2 53.65 148.21 51.63 150.8 49.04 152.98 46.12 154.45 43.35 155.5 40.52 156.23 37.61 156.62 33.53 156.62 26.58 156.07 23.24 155.19 20.13 154.1 17.48 152.56 14.78 150.65 12.3 148.84 10.48 146.05 8.33 142.85 6.52 139.26 5.05 134.54 3.78 131.28 3.24 125.8 3.1 71.75 3.1 71.75 60.35 69.01 60.35 69.01 .36 125.84 .36 131.64 .52 135.18 1.12 140.21 2.49 144.12 4.09 147.65 6.1 150.71 8.49 152.77 10.56 154.89 13.34 156.6 16.36 157.81 19.31 158.76 22.73 159.36 26.47 159.35 33.72 158.91 38.17 158.1 41.41 156.91 44.55 155.24 47.67 152.81 50.9 149.84 53.83 146.52 56.05 142.88 57.91 138.66 59.45 135.51 60.28 130.6 61.14 126.34 61.56 120.35 61.72 106.74 61.72"/>
      </g>
      <rect class="cls-3" x="65.68" y=".63" width=".91" height="59.73"/>
      <path class="cls-3" d="m106.99,40.4v-.91h12.53c2.78-.21,5.66-.41,8.19-1.69,1.86-.95,3.27-2.37,3.97-4,.42-.98.63-2.14.64-3.46,0-1.32-.2-2.49-.61-3.48-1.27-3.02-4.06-4.05-7.32-5l.26-.88c3.36.98,6.49,2.13,7.91,5.53.46,1.1.69,2.39.69,3.83,0,1.44-.24,2.73-.71,3.82-.78,1.83-2.34,3.41-4.39,4.45-2.69,1.37-5.66,1.58-8.54,1.78h-.19s-12.41.01-12.41.01Z"/>
    </g>
  </g>
</svg>